<?xml version="1.0" encoding="UTF-8" standalone="no"?>
<!-- Generator: Adobe Illustrator 18.1.1, SVG Export Plug-In . SVG Version: 6.00 Build 0)  -->

<svg
   xmlns:dc="http://purl.org/dc/elements/1.1/"
   xmlns:cc="http://creativecommons.org/ns#"
   xmlns:rdf="http://www.w3.org/1999/02/22-rdf-syntax-ns#"
   xmlns:svg="http://www.w3.org/2000/svg"
   xmlns="http://www.w3.org/2000/svg"
   xmlns:sodipodi="http://sodipodi.sourceforge.net/DTD/sodipodi-0.dtd"
   xmlns:inkscape="http://www.inkscape.org/namespaces/inkscape"
   version="1.1"
   id="Capa_1"
   x="0px"
   y="0px"
   viewBox="0 0 612 612"
   style="enable-background:new 0 0 612 612;"
   xml:space="preserve"
   inkscape:version="0.91 r13725"
   sodipodi:docname="twitter.svg"><metadata
     id="metadata43"><rdf:RDF><cc:Work
         rdf:about=""><dc:format>image/svg+xml</dc:format><dc:type
           rdf:resource="http://purl.org/dc/dcmitype/StillImage" /></cc:Work></rdf:RDF></metadata><defs
     id="defs41" /><sodipodi:namedview
     pagecolor="#ffffff"
     bordercolor="#666666"
     borderopacity="1"
     objecttolerance="10"
     gridtolerance="10"
     guidetolerance="10"
     inkscape:pageopacity="0"
     inkscape:pageshadow="2"
     inkscape:window-width="1366"
     inkscape:window-height="744"
     id="namedview39"
     showgrid="false"
     inkscape:zoom="0.38562092"
     inkscape:cx="732.58475"
     inkscape:cy="306"
     inkscape:window-x="0"
     inkscape:window-y="24"
     inkscape:window-maximized="1"
     inkscape:current-layer="Capa_1" /><g
     id="g3"
     style="fill:#cccccc"><g
       id="g5"
       style="fill:#cccccc"><path
         style="fill:#cccccc"
         d="M612,116.258c-22.525,9.981-46.694,16.75-72.088,19.772c25.929-15.527,45.777-40.155,55.184-69.411    c-24.322,14.379-51.169,24.82-79.775,30.48c-22.907-24.437-55.49-39.658-91.63-39.658c-69.334,0-125.551,56.217-125.551,125.513    c0,9.828,1.109,19.427,3.251,28.606C197.065,206.32,104.556,156.337,42.641,80.386c-10.823,18.51-16.98,40.078-16.98,63.101    c0,43.559,22.181,81.993,55.835,104.479c-20.575-0.688-39.926-6.348-56.867-15.756v1.568c0,60.806,43.291,111.554,100.693,123.104    c-10.517,2.83-21.607,4.398-33.08,4.398c-8.107,0-15.947-0.803-23.634-2.333c15.985,49.907,62.336,86.199,117.253,87.194    c-42.947,33.654-97.099,53.655-155.916,53.655c-10.134,0-20.116-0.612-29.944-1.721c55.567,35.681,121.536,56.485,192.438,56.485    c230.948,0,357.188-191.291,357.188-357.188l-0.421-16.253C573.872,163.526,595.211,141.422,612,116.258z"
         id="path7" /></g></g><g
     id="g9" /><g
     id="g11" /><g
     id="g13" /><g
     id="g15" /><g
     id="g17" /><g
     id="g19" /><g
     id="g21" /><g
     id="g23" /><g
     id="g25" /><g
     id="g27" /><g
     id="g29" /><g
     id="g31" /><g
     id="g33" /><g
     id="g35" /><g
     id="g37" /><path
     style="fill:#000000;fill-opacity:0"
     d="M 159.83447,551.67246 C 115.25716,547.71676 71.282303,534.74703 29.822034,513.32721 L 6.4830508,501.26949 41.491525,499.59295 c 26.737679,-1.28048 40.522338,-3.31188 58.347458,-8.59845 25.229047,-7.48242 55.938907,-21.85205 75.578067,-35.36416 l 12.31846,-8.47531 -20.9387,-4.50445 c -11.51629,-2.47744 -27.14573,-7.64977 -34.7321,-11.49409 -23.66494,-11.99193 -50.475217,-40.82841 -58.980378,-63.43785 l -2.438776,-6.48305 22.376375,0 c 12.307009,0 24.710269,-0.97785 27.562819,-2.17301 4.31452,-1.80768 2.45151,-3.17338 -11.08173,-8.12342 -42.886501,-15.68662 -73.145757,-51.20132 -81.251861,-95.36375 -1.765748,-9.61988 -2.718128,-17.97822 -2.116398,-18.57409 0.601729,-0.59587 9.262697,1.70181 19.246595,5.10594 9.983898,3.40415 22.427598,6.21948 27.652665,6.2563 l 9.500123,0.0669 L 65.78563,232.34776 C 28.38373,196.43261 17.065194,144.13116 36.390487,96.5167 l 5.353361,-13.189835 25.157738,24.852665 c 59.175954,58.45838 137.825944,96.00769 215.240244,102.76063 l 20.41149,1.78052 -1.92471,-13.91204 c -2.28198,-16.49432 1.00044,-44.2622 7.07174,-59.82415 19.94064,-51.11172 69.4529,-82.699188 124.07084,-79.153787 26.41226,1.714492 46.28514,9.227185 68.11466,25.749886 l 17.11642,12.955376 15.99514,-4.329682 c 8.79732,-2.381326 25.14086,-8.305488 36.31899,-13.164809 11.17813,-4.85932 20.80271,-8.356269 21.38797,-7.770998 0.58526,0.585272 -2.06846,6.819751 -5.89719,13.854399 -7.48167,13.746295 -23.0063,31.454875 -37.63769,42.932445 l -9.07627,7.11987 12.9661,-1.7462 c 7.13136,-0.96041 22.11919,-4.60393 33.30626,-8.09673 11.1871,-3.4928 20.99279,-5.69792 21.79044,-4.90028 0.79763,0.79765 -12.14802,14.94803 -28.76815,31.4453 l -30.21838,29.99504 0,24.15875 c 0,101.78739 -58.90355,215.44886 -144.14516,278.14533 -66.67694,49.0419 -156.37259,73.19805 -243.18986,65.49406 z"
     id="path3371"
     inkscape:connector-curvature="0" /><path
     style="fill:#f9f9f9;fill-opacity:0"
     d="M 159.83447,551.67246 C 115.25716,547.71676 71.282303,534.74703 29.822034,513.32721 L 6.4830508,501.26949 41.491525,499.59295 c 26.737679,-1.28048 40.522338,-3.31188 58.347458,-8.59845 25.229047,-7.48242 55.938907,-21.85205 75.578067,-35.36416 l 12.31846,-8.47531 -20.9387,-4.50445 c -11.51629,-2.47744 -27.14573,-7.64977 -34.7321,-11.49409 -23.66494,-11.99193 -50.475217,-40.82841 -58.980378,-63.43785 l -2.438776,-6.48305 22.376375,0 c 12.307009,0 24.710269,-0.97785 27.562819,-2.17301 4.31452,-1.80768 2.45151,-3.17338 -11.08173,-8.12342 -42.886501,-15.68662 -73.145757,-51.20132 -81.251861,-95.36375 -1.765748,-9.61988 -2.718128,-17.97822 -2.116398,-18.57409 0.601729,-0.59587 9.262697,1.70181 19.246595,5.10594 9.983898,3.40415 22.427598,6.21948 27.652665,6.2563 l 9.500123,0.0669 L 65.78563,232.34776 C 28.38373,196.43261 17.065194,144.13116 36.390487,96.5167 l 5.353361,-13.189835 25.157738,24.852665 c 59.175954,58.45838 137.825944,96.00769 215.240244,102.76063 l 20.41149,1.78052 -1.92471,-13.91204 c -2.28198,-16.49432 1.00044,-44.2622 7.07174,-59.82415 19.94064,-51.11172 69.4529,-82.699188 124.07084,-79.153787 26.41226,1.714492 46.28514,9.227185 68.11466,25.749886 l 17.11642,12.955376 15.99514,-4.329682 c 8.79732,-2.381326 25.14086,-8.305488 36.31899,-13.164809 11.17813,-4.85932 20.80271,-8.356269 21.38797,-7.770998 0.58526,0.585272 -2.06846,6.819751 -5.89719,13.854399 -7.48167,13.746295 -23.0063,31.454875 -37.63769,42.932445 l -9.07627,7.11987 12.9661,-1.7462 c 7.13136,-0.96041 22.11919,-4.60393 33.30626,-8.09673 11.1871,-3.4928 20.99279,-5.69792 21.79044,-4.90028 0.79763,0.79765 -12.14802,14.94803 -28.76815,31.4453 l -30.21838,29.99504 0,24.15875 c 0,101.78739 -58.90355,215.44886 -144.14516,278.14533 -66.67694,49.0419 -156.37259,73.19805 -243.18986,65.49406 z"
     id="path3373"
     inkscape:connector-curvature="0" /><path
     style="fill:#f9f9f9;fill-opacity:0"
     d="M 159.83447,551.67246 C 115.25716,547.71676 71.282303,534.74703 29.822034,513.32721 L 6.4830508,501.26949 41.491525,499.59295 c 26.737679,-1.28048 40.522338,-3.31188 58.347458,-8.59845 25.229047,-7.48242 55.938907,-21.85205 75.578067,-35.36416 l 12.31846,-8.47531 -20.9387,-4.50445 c -11.51629,-2.47744 -27.14573,-7.64977 -34.7321,-11.49409 -23.66494,-11.99193 -50.475217,-40.82841 -58.980378,-63.43785 l -2.438776,-6.48305 22.376375,0 c 12.307009,0 24.710269,-0.97785 27.562819,-2.17301 4.31452,-1.80768 2.45151,-3.17338 -11.08173,-8.12342 -42.886501,-15.68662 -73.145757,-51.20132 -81.251861,-95.36375 -1.765748,-9.61988 -2.718128,-17.97822 -2.116398,-18.57409 0.601729,-0.59587 9.262697,1.70181 19.246595,5.10594 9.983898,3.40415 22.427598,6.21948 27.652665,6.2563 l 9.500123,0.0669 L 65.78563,232.34776 C 28.38373,196.43261 17.065194,144.13116 36.390487,96.5167 l 5.353361,-13.189835 25.157738,24.852665 c 59.175954,58.45838 137.825944,96.00769 215.240244,102.76063 l 20.41149,1.78052 -1.92471,-13.91204 c -2.28198,-16.49432 1.00044,-44.2622 7.07174,-59.82415 19.94064,-51.11172 69.4529,-82.699188 124.07084,-79.153787 26.41226,1.714492 46.28514,9.227185 68.11466,25.749886 l 17.11642,12.955376 15.99514,-4.329682 c 8.79732,-2.381326 25.14086,-8.305488 36.31899,-13.164809 11.17813,-4.85932 20.80271,-8.356269 21.38797,-7.770998 0.58526,0.585272 -2.06846,6.819751 -5.89719,13.854399 -7.48167,13.746295 -23.0063,31.454875 -37.63769,42.932445 l -9.07627,7.11987 12.9661,-1.7462 c 7.13136,-0.96041 22.11919,-4.60393 33.30626,-8.09673 11.1871,-3.4928 20.99279,-5.69792 21.79044,-4.90028 0.79763,0.79765 -12.14802,14.94803 -28.76815,31.4453 l -30.21838,29.99504 0,24.15875 c 0,101.78739 -58.90355,215.44886 -144.14516,278.14533 -66.67694,49.0419 -156.37259,73.19805 -243.18986,65.49406 z"
     id="path3375"
     inkscape:connector-curvature="0" /><path
     style="fill:#f9f9f9;fill-opacity:0"
     d="M 159.83447,551.67246 C 115.25716,547.71676 71.282303,534.74703 29.822034,513.32721 L 6.4830508,501.26949 41.491525,499.59295 c 26.737679,-1.28048 40.522338,-3.31188 58.347458,-8.59845 25.229047,-7.48242 55.938907,-21.85205 75.578067,-35.36416 l 12.31846,-8.47531 -20.9387,-4.50445 c -11.51629,-2.47744 -27.14573,-7.64977 -34.7321,-11.49409 -23.66494,-11.99193 -50.475217,-40.82841 -58.980378,-63.43785 l -2.438776,-6.48305 22.376375,0 c 12.307009,0 24.710269,-0.97785 27.562819,-2.17301 4.31452,-1.80768 2.45151,-3.17338 -11.08173,-8.12342 -42.886501,-15.68662 -73.145757,-51.20132 -81.251861,-95.36375 -1.765748,-9.61988 -2.718128,-17.97822 -2.116398,-18.57409 0.601729,-0.59587 9.262697,1.70181 19.246595,5.10594 9.983898,3.40415 22.427598,6.21948 27.652665,6.2563 l 9.500123,0.0669 L 65.78563,232.34776 C 28.38373,196.43261 17.065194,144.13116 36.390487,96.5167 l 5.353361,-13.189835 25.157738,24.852665 c 59.175954,58.45838 137.825944,96.00769 215.240244,102.76063 l 20.41149,1.78052 -1.92471,-13.91204 c -2.28198,-16.49432 1.00044,-44.2622 7.07174,-59.82415 19.94064,-51.11172 69.4529,-82.699188 124.07084,-79.153787 26.41226,1.714492 46.28514,9.227185 68.11466,25.749886 l 17.11642,12.955376 15.99514,-4.329682 c 8.79732,-2.381326 25.14086,-8.305488 36.31899,-13.164809 11.17813,-4.85932 20.80271,-8.356269 21.38797,-7.770998 0.58526,0.585272 -2.06846,6.819751 -5.89719,13.854399 -7.48167,13.746295 -23.0063,31.454875 -37.63769,42.932445 l -9.07627,7.11987 12.9661,-1.7462 c 7.13136,-0.96041 22.11919,-4.60393 33.30626,-8.09673 11.1871,-3.4928 20.99279,-5.69792 21.79044,-4.90028 0.79763,0.79765 -12.14802,14.94803 -28.76815,31.4453 l -30.21838,29.99504 0,24.15875 c 0,101.78739 -58.90355,215.44886 -144.14516,278.14533 -66.67694,49.0419 -156.37259,73.19805 -243.18986,65.49406 z"
     id="path3377"
     inkscape:connector-curvature="0" /></svg>